# AST/ASF file generated using VICON BodyLanguage
# -----------------------------------------------
:version 1.10
:name VICON
:units
  mass 1.0
  length 0.45
  angle deg
:documentation
   .ast/.asf automatically generated from VICON data using
   VICON BodyBuilder and BodyLanguage model FoxedUp or BRILLIANT.MOD
:root
   order TX TY TZ RX RY RZ
   axis XYZ
   position 0 0 0  
   orientation 0 0 0 
:bonedata
  begin
     id 1 
     name lhipjoint
     direction 0.573633 -0.743009 0.344793 
     length 2.46257 
     axis 0 0 0  XYZ
  end
  begin
     id 2 
     name lfemur
     direction 0.34202 -0.939693 0  
     length 7.3842  
     axis 0 0 20  XYZ
    dof rx ry rz
    limits (-160.0 20.0)
           (-70.0 70.0)
           (-60.0 70.0)
  end
  begin
     id 3 
     name ltibia
     direction 0.34202 -0.939693 0   
     length 7.50407   
     axis 0 0 20   XYZ
    dof rx
    limits (-10.0 170.0)
  end
  begin
     id 4 
     name lfoot
     direction 0.110749 -0.304281 0.946123   
     length 1.95925   
     axis -90 7.62852e-016 20   XYZ
    dof rx rz
    limits (-45.0 90.0)
           (-70.0 20.0)
  end
  begin
     id 5 
     name ltoes
     direction 1.53554e-011 -4.21843e-011 1   
     length 0.978318   
     axis -90 7.62852e-016 20   XYZ
    dof rx
    limits (-90.0 20.0)
  end
  begin
     id 6 
     name rhipjoint
     direction -0.488109 -0.791693 0.367385   
     length 2.31113  
     axis 0 0 0  XYZ 
  end
  begin
     id 7 
     name rfemur
     direction -0.34202 -0.939693 0   
     length 7.40965   
     axis 0 0 -20   XYZ
    dof rx ry rz
    limits (-160.0 20.0)
           (-70.0 70.0)
           (-70.0 60.0)
  end
  begin
     id 8 
     name rtibia
     direction -0.34202 -0.939693 0   
     length 7.55548   
     axis 0 0 -20   XYZ
    dof rx
    limits (-10.0 170.0)
 end
 begin
     id 9 
     name rfoot
     direction -0.127594 -0.350561 0.927808   
     length 2.07199  
     axis -90 -7.62852e-016 -20   XYZ
    dof rx rz
    limits (-45.0 90.0)
           (-20.0 70.0)
  end
  begin
     id 10 
     name rtoes
     direction -1.53542e-011 -4.21909e-011 1   
     length 1.02667   
     axis -90 -7.62852e-016 -20   XYZ
    dof rx
    limits (-90.0 20.0)
  end
  begin
     id 11 
     name lowerback
     direction -0.0103342 0.997298 -0.0727278   
     length 2.02836   
     axis 0 0 0   XYZ
    dof rx ry rz
    limits (-20.0 45.0)
           (-30.0 30.0)
           (-30.0 30.0)
  end
  begin
     id 12 
     name upperback
     direction 0.0171146 0.999786 -0.011606   
     length 2.03179   
     axis 0 0 0   XYZ
    dof rx ry rz
    limits (-20.0 45.0)
           (-30.0 30.0)
           (-30.0 30.0)
  end
  begin
     id 13 
     name thorax
     direction 0.0216927 0.999513 0.0224343   
     length 2.03882   
     axis 0 0 0   XYZ
    dof rx ry rz
    limits (-20.0 45.0)
           (-30.0 30.0)
           (-30.0 30.0)
  end
  begin
     id 14 
     name lowerneck
     direction 0.000989287 0.993907 0.110221   
     length 1.75428   
     axis 0 0 0   XYZ
    dof rx ry rz
    limits (-20.0 45.0)
           (-30.0 30.0)
           (-30.0 30.0)
  end
  begin
     id 15 
     name upperneck
     direction -0.0172474 0.994813 -0.100253   
     length 1.77058   
     axis 0 0 0   XYZ
    dof rx ry rz
    limits (-20.0 45.0)
           (-30.0 30.0)
           (-30.0 30.0)
  end
  begin
     id 16
     name head
     direction -0.00486455 0.99894 -0.0457663  
     length 1.77427  
     axis 0 0 0   XYZ
    dof rx ry rz
    limits (-20.0 45.0)
           (-30.0 30.0)
           (-30.0 30.0)
  end
  begin
     id 17 
     name lclavicle
     direction 0.927314 0.333734 -0.169441  
     length 3.97584  
     axis 0 0 0   XYZ
    dof ry rz
    limits (-20.0 10.0)
           (0.0 20.0)
  end
  begin
     id 18 
     name lhumerus
     direction 1 -4.48965e-011 -3.25313e-028   
     length 4.76468   
     axis 180 -30 -90   XYZ
    dof rx ry rz
    limits (-60.0 90.0)
           (-90.0 90.0)
           (-90.0 90.0)
  end
  begin
     id 19
     name lradius
     direction 1 -4.48969e-011 -2.8465e-028   
     length 3.52712   
     axis -180 -30 -90   XYZ
    dof rx
    limits (-10.0 170.0)
  end
  begin
     id 20
     name lwrist
     direction 1 -4.4896e-011 -7.78665e-028   
     length 1.76356   
     axis 1.91374e-015 90 90   XYZ
    dof ry
    limits (-180.0 0.0)
 end
  begin
     id 21 
     name lhand
     direction 1 -4.48959e-011 -1.55733e-027   
     length 0.859564   
     axis 9.9371e-016 90 90   XYZ
    dof rx rz
    limits (-90.0 90.0)
           (-45.0 45.0)
  end
  begin
     id 22 
     name lfingers
     direction 1 -4.48965e-011 -3.11466e-027   
     length 0.693002   
     axis 1.98742e-015 90 90   XYZ
    dof rx
    limits (0.0 90.0)
  end
  begin
     id 23
     name lthumb
     direction 0.707107 -6.34948e-011 0.707107   
     length 0.995017   
     axis -90 45 2.85299e-015   XYZ
    dof rx rz
    limits (-45.0 45.0)
           (-45.0 45.0)
  end
  begin
     id 24 
     name rclavicle
     direction -0.899388 0.348209 -0.264294   
     length 3.68366  
     axis 0 0 0   XYZ 
    dof ry rz
    limits (-10.0 20.0)
           (-20.0 0.0)
  end
  begin
     id 25 
     name rhumerus
     direction -1 -4.48965e-011 -3.01536e-027  
     length 4.90577   
     axis 180 30 90   XYZ
    dof rx ry rz
    limits (-90.0 60.0)
           (-90.0 90.0)
           (-90.0 90.0)
  end
  begin
     id 26 
     name rradius
     direction -1 -4.48966e-011 3.93291e-027   
     length 3.42692   
     axis -180 30 90   XYZ
    dof rx
    limits (-10.0 170.0)
  end
  begin
     id 27 
     name rwrist
     direction -1 -4.48969e-011 -7.78665e-028   
     length 1.71346   
     axis 1.91374e-015 -90 -90   XYZ
    dof ry
    limits (-180.0 0.0)
  end
  begin
     id 28
     name rhand
     direction -1 -4.48967e-011 -1.55733e-027   
     length 0.740957   
     axis 9.9371e-016 -90 -90   XYZ
    dof rx rz
    limits (-90.0 90.0)
           (-45.0 45.0)
  end
  begin
     id 29
     name rfingers
     direction -1 -4.48949e-011 -3.11466e-027   
     length 0.597378   
     axis 1.98742e-015 -90 -90   XYZ
    dof rx
    limits (0.0 90.0)
  end
  begin
     id 30
     name rthumb
     direction -0.707107 -6.34931e-011 0.707107   
     length 0.857719   
     axis -90 -45 -2.85299e-015   XYZ
    dof rx rz
    limits (-45.0 45.0)
           (-45.0 45.0)
  end
:hierarchy
  begin
    root lhipjoint rhipjoint lowerback
    lhipjoint lfemur
    lfemur ltibia
    ltibia lfoot
    lfoot ltoes
    rhipjoint rfemur
    rfemur rtibia
    rtibia rfoot
    rfoot rtoes
    lowerback upperback
    upperback thorax
    thorax lowerneck lclavicle rclavicle
    lowerneck upperneck
    upperneck head
    lclavicle lhumerus
    lhumerus lradius
    lradius lwrist
    lwrist lhand lthumb
    lhand lfingers
    rclavicle rhumerus
    rhumerus rradius
    rradius rwrist
    rwrist rhand rthumb
    rhand rfingers
  end

#!OML:ASF E:\I on waltz\AllaLogoMonkeySwing\Project 1\Capture day 1\Session 1\Subject1.ASF
:FULLY-SPECIFIED
:DEGREES
385
root 1.58605 17.8512 5.34475 1.14508 -0.0974942 -1.64874
lowerback 4.85662 0.732946 -0.590934
upperback -1.36143 1.013 1.8118
thorax -4.17451 0.542767 2.11925
lowerneck -14.7987 2.19873 0.940997
upperneck 16.3294 3.24346 -2.32651
head 7.51808 1.38781 -0.568547
rclavicle -1.21942e-014 -2.70347e-014
rhumerus -33.9061 -23.1107 -76.6969
rradius 25.8463
rwrist 4.75077
rhand -6.4677 -36.471
rfingers 7.12502
rthumb 19.3827 -65.525
lclavicle -1.21942e-014 -2.70347e-014
lhumerus -39.655 19.5539 80.7688
lradius 36.3157
lwrist -4.34066
lhand -5.6387 -12.9591
lfingers 7.12502
lthumb 20.1796 16.0127
rfemur -0.949894 1.03928 21.6489
rtibia 17.0736
rfoot -15.4786 -11.6649
rtoes 20.5444
lfemur 2.14901 -0.734351 -18.0152
ltibia 11.1343
lfoot -15.0456 2.81874
ltoes -28.6495
386
root 1.58799 17.8519 5.34487 1.18025 -0.104413 -1.58687
lowerback 4.86111 0.727373 -0.632131
upperback -1.36981 1.00365 1.82709
thorax -4.18641 0.53953 2.15901
lowerneck -14.7117 2.21781 1.02428
upperneck 16.3025 3.27338 -2.44752
head 7.49812 1.39683 -0.619524
rclavicle -2.16303e-014 9.54166e-015
rhumerus -33.8575 -23.2515 -76.6502
rradius 25.8288
rwrist 4.69919
rhand -6.37337 -36.3057
rfingers 7.12502
rthumb 19.4734 -65.3506
lclavicle -2.16303e-014 9.54166e-015
lhumerus -39.6845 19.6905 80.7609
lradius 36.371
lwrist -4.46057
lhand -5.70646 -12.9162
lfingers 7.12502
lthumb 20.1145 16.0625
rfemur -1.01716 1.02283 21.5678
rtibia 17.128
rfoot -15.5071 -11.6535
rtoes 20.3361
lfemur 2.14616 -0.696001 -18.0869
ltibia 11.0655
lfoot -15.0135 2.76828
ltoes -28.6064
387
root 1.59013 17.8524 5.34514 1.22411 -0.102734 -1.50745
lowerback 4.85426 0.740696 -0.672802
upperback -1.37873 1.01897 1.82826
thorax -4.19325 0.548325 2.18186
lowerneck -14.6676 2.2193 0.971494
upperneck 16.3408 3.28183 -2.41106
head 7.50161 1.40111 -0.598349
rclavicle -4.83916e-015 -1.15295e-014
rhumerus -33.8409 -23.4043 -76.6015
rradius 25.8681
rwrist 4.66104
rhand -6.45937 -36.3648
rfingers 7.12502
rthumb 19.3907 -65.418
lclavicle -4.83916e-015 -1.15295e-014
lhumerus -39.6709 19.7706 80.7737
lradius 36.3863
lwrist -4.56
lhand -5.78425 -12.982
lfingers 7.12502
lthumb 20.0397 16.0046
rfemur -1.08246 1.02235 21.4659
rtibia 17.1579
rfoot -15.5319 -11.6723
rtoes 20.2272
lfemur 2.11578 -0.638149 -18.1782
ltibia 11.0283
lfoot -15.0013 2.71215
ltoes -28.4515
388
root 1.59209 17.8526 5.34474 1.27119 -0.0864478 -1.51349
lowerback 4.86024 0.752958 -0.621475
upperback -1.37607 1.03981 1.85719
thorax -4.19442 0.557746 2.18113
lowerneck -14.7503 2.19897 0.78376
upperneck 16.4533 3.26718 -2.24132
head 7.54659 1.39672 -0.512378
rclavicle -9.53235e-015 -2.38542e-015
rhumerus -33.8126 -23.4895 -76.5796
rradius 25.9315
rwrist 4.52228
rhand -6.66197 -36.48
rfingers 7.12502
rthumb 19.1959 -65.5527
lclavicle -9.53235e-015 -2.38542e-015
lhumerus -39.6347 19.7713 80.8759
lradius 36.4286
lwrist -4.51497
lhand -5.92241 -13.0555
lfingers 7.12502
lthumb 19.9069 15.9449
rfemur -1.14638 1.10332 21.475
rtibia 17.1829
rfoot -15.5524 -11.7739
rtoes 20.286
lfemur 2.06999 -0.574675 -18.1692
ltibia 10.9879
lfoot -14.9818 2.63538
ltoes -28.5651
389
root 1.59397 17.8528 5.34521 1.29199 -0.0755667 -1.57527
lowerback 4.87627 0.758967 -0.506386
upperback -1.36074 1.05626 1.88554
thorax -4.18668 0.56318 2.14422
lowerneck -14.8148 2.17295 0.688243
upperneck 16.5047 3.23959 -2.16295
head 7.57139 1.38398 -0.473197
rclavicle 1.70831e-015 7.95139e-016
rhumerus -33.78 -23.5653 -76.5649
rradius 25.9343
rwrist 4.40878
rhand -6.73355 -36.4994
rfingers 7.12502
rthumb 19.1271 -65.5788
lclavicle 1.70831e-015 7.95139e-016
lhumerus -39.6174 19.875 80.909
lradius 36.4599
lwrist -4.60662
lhand -5.9764 -13.0921
lfingers 7.12502
lthumb 19.855 15.9137
rfemur -1.16667 1.10466 21.5397
rtibia 17.1888
rfoot -15.5308 -11.7925
rtoes 20.3016
lfemur 2.05037 -0.532836 -18.1005
ltibia 10.9705
lfoot -14.9966 2.5833
ltoes -28.7035
390
root 1.59586 17.8528 5.34676 1.29465 -0.064138 -1.53387
lowerback 4.87559 0.752081 -0.501228
upperback -1.32611 1.04669 1.88096
thorax -4.14974 0.557776 2.13748
lowerneck -14.824 2.16515 0.73965
upperneck 16.482 3.23424 -2.25539
head 7.568 1.37593 -0.512501
rclavicle 1.27253e-014 -3.97569e-015
rhumerus -33.7209 -23.6637 -76.5556
rradius 25.8774
rwrist 4.4235
rhand -6.72278 -36.5334
rfingers 7.12502
rthumb 19.1374 -65.6119
lclavicle 1.27253e-014 -3.97569e-015
lhumerus -39.6034 20.0682 80.8498
lradius 36.4537
lwrist -4.83088
lhand -5.88512 -13.1718
lfingers 7.12502
lthumb 19.9428 15.8249
rfemur -1.14875 1.04735 21.4785
rtibia 17.1657
rfoot -15.4977 -11.7323
rtoes 20.1925
lfemur 2.03553 -0.572755 -18.1551
ltibia 11.0063
lfoot -15.0212 2.59105
ltoes -28.4669
391
root 1.59792 17.8533 5.34736 1.29075 -0.0356837 -1.48492
lowerback 4.88887 0.724407 -0.525296
upperback -1.28206 1.00839 1.90062
thorax -4.11075 0.539083 2.17464
lowerneck -14.8236 2.18522 0.809472
upperneck 16.4264 3.27651 -2.42353
head 7.55468 1.38491 -0.574641
rclavicle 7.22458e-015 9.93923e-015
rhumerus -33.6322 -23.6764 -76.55
rradius 25.7792
rwrist 4.51383
rhand -6.66287 -36.5986
rfingers 7.12502
rthumb 19.195 -65.6714
lclavicle 7.22458e-015 9.93923e-015
lhumerus -39.5952 20.1893 80.8647
lradius 36.4663
lwrist -4.80012
lhand -5.83692 -13.2562
lfingers 7.12502
lthumb 19.9891 15.7356
rfemur -1.13643 1.01015 21.411
rtibia 17.1583
rfoot -15.5161 -11.6799
rtoes 20.2534
lfemur 2.02711 -0.655816 -18.217
ltibia 11.0322
lfoot -15.0168 2.588
ltoes -28.1614
392
root 1.59984 17.8534 5.34669 1.27712 -0.0154001 -1.54898
lowerback 4.938 0.701317 -0.434233
upperback -1.24981 0.985001 1.94573
thorax -4.10333 0.525512 2.17175
lowerneck -14.7982 2.22605 0.851095
upperneck 16.363 3.33769 -2.50985
head 7.5328 1.40935 -0.603536
rclavicle 8.31168e-015 5.1684e-015
rhumerus -33.5843 -23.6849 -76.5292
rradius 25.6532
rwrist 4.65207
rhand -6.53648 -36.6386
rfingers 7.12502
rthumb 19.3166 -65.6992
lclavicle 8.31168e-015 5.1684e-015
lhumerus -39.5994 20.232 80.9209
lradius 36.4793
lwrist -4.62008
lhand -5.76452 -13.2683
lfingers 7.12502
lthumb 20.0587 15.7163
rfemur -1.13762 1.01969 21.4786
rtibia 17.1826
rfoot -15.5403 -11.6943
rtoes 20.385
lfemur 2.04865 -0.650696 -18.1518
ltibia 11.0146
lfoot -15.0196 2.56697
ltoes -28.2452
393
root 1.60083 17.8528 5.34593 1.28872 0.0198106 -1.53249
lowerback 4.96521 0.704056 -0.410315
upperback -1.24952 0.990301 1.94385
thorax -4.11818 0.5276 2.15565
lowerneck -14.7159 2.22413 0.825097
upperneck 16.3169 3.33499 -2.48465
head 7.50226 1.41013 -0.592286
rclavicle 1.87603e-015 -3.97569e-016
rhumerus -33.6545 -23.7655 -76.4663
rradius 25.5626
rwrist 4.7279
rhand -6.49526 -36.6328
rfingers 7.12502
rthumb 19.3562 -65.6895
lclavicle 1.87603e-015 -3.97569e-016
lhumerus -39.6268 20.1998 80.9617
lradius 36.4629
lwrist -4.56785
lhand -5.68134 -13.3194
lfingers 7.12502
lthumb 20.1387 15.6567
rfemur -1.16245 1.06215 21.4649
rtibia 17.2088
rfoot -15.5529 -11.7718
rtoes 20.6346
lfemur 2.03623 -0.611161 -18.1773
ltibia 10.9979
lfoot -15.0211 2.54992
ltoes -28.4763
394
root 1.60183 17.8536 5.34536 1.34287 0.0867439 -1.42273
lowerback 4.94791 0.723203 -0.467392
upperback -1.27526 1.01127 1.91417
thorax -4.13642 0.539339 2.15532
lowerneck -14.6018 2.17343 0.708869
upperneck 16.2882 3.27869 -2.41841
head 7.46872 1.38371 -0.558875
rclavicle -4.95719e-015 7.55382e-015
rhumerus -33.8017 -23.8798 -76.3446
rradius 25.4717
rwrist 4.71026
rhand -6.63247 -36.5465
rfingers 7.12502
rthumb 19.2243 -65.6164
lclavicle -4.95719e-015 7.55382e-015
lhumerus -39.6904 20.0709 81.0531
lradius 36.4543
lwrist -4.51104
lhand -5.70803 -13.4303
lfingers 7.12502
lthumb 20.113 15.5486
rfemur -1.22521 1.06717 21.3444
rtibia 17.2301
rfoot -15.5755 -11.8511
rtoes 20.7788
lfemur 1.95825 -0.619819 -18.3023
ltibia 10.9961
lfoot -14.9935 2.50255
ltoes -28.3916
395
root 1.6032 17.8545 5.3449 1.38179 0.159576 -1.39462
lowerback 4.94433 0.739417 -0.436539
upperback -1.2808 1.03509 1.91639
thorax -4.14063 0.550489 2.13823
lowerneck -14.5773 2.12259 0.614363
upperneck 16.3116 3.23045 -2.41425
head 7.46973 1.35518 -0.547379
rclavicle -3.11222e-015 0
rhumerus -33.9108 -24.0519 -76.1792
rradius 25.3483
rwrist 4.77467
rhand -6.62305 -36.5938
rfingers 7.12502
rthumb 19.2333 -65.6627
lclavicle -3.11222e-015 0
lhumerus -39.7316 19.9846 81.1649
lradius 36.4227
lwrist -4.52444
lhand -5.69825 -13.506
lfingers 7.12502
lthumb 20.1224 15.4719
rfemur -1.27432 1.0569 21.3133
rtibia 17.2495
rfoot -15.5984 -11.9178
rtoes 20.6312
lfemur 1.89858 -0.593989 -18.3255
ltibia 10.9956
lfoot -15.002 2.40373
ltoes -28.2511
396
root 1.60465 17.8552 5.34428 1.3916 0.246773 -1.42378
lowerback 4.97101 0.749495 -0.340022
upperback -1.26188 1.0553 1.93142
thorax -4.1354 0.55815 2.09755
lowerneck -14.6138 2.08153 0.559179
upperneck 16.3423 3.19219 -2.43767
head 7.48522 1.33059 -0.549656
rclavicle 4.26766e-015 3.97569e-016
rhumerus -34.0082 -24.2658 -76.0014
rradius 25.2649
rwrist 4.93315
rhand -6.34247 -36.7319
rfingers 7.12502
rthumb 19.5031 -65.7737
lclavicle 4.26766e-015 3.97569e-016
lhumerus -39.7333 19.9746 81.2624
lradius 36.3633
lwrist -4.6609
lhand -5.7017 -13.5447
lfingers 7.12502
lthumb 20.1191 15.4335
rfemur -1.28452 1.01893 21.3443
rtibia 17.2515
rfoot -15.6032 -11.9401
rtoes 20.6288
lfemur 1.86728 -0.545292 -18.2799
ltibia 11.0136
lfoot -15.0647 2.27542
ltoes -28.3697
397
root 1.60614 17.8568 5.34421 1.42779 0.348624 -1.42016
lowerback 4.96004 0.743128 -0.284356
upperback -1.24002 1.0498 1.9268
thorax -4.10514 0.553674 2.06207
lowerneck -14.5694 2.08022 0.549464
upperneck 16.2579 3.19314 -2.45394
head 7.44991 1.33027 -0.553951
rclavicle -1.10574e-015 3.02153e-014
rhumerus -34.0706 -24.4459 -75.9071
rradius 25.1276
rwrist 4.93554
rhand -6.63649 -36.4756
rfingers 7.12502
rthumb 19.2204 -65.5458
lclavicle -1.10574e-015 3.02153e-014
lhumerus -39.733 19.9799 81.3467
lradius 36.3517
lwrist -4.69394
lhand -5.73328 -13.4884
lfingers 7.12502
lthumb 20.0887 15.4931
rfemur -1.30963 0.904715 21.3318
rtibia 17.2308
rfoot -15.5423 -11.9182
rtoes 20.4197
lfemur 1.78509 -0.559326 -18.2795
ltibia 11.0634
lfoot -15.1173 2.18697
ltoes -28.424
398
root 1.60702 17.8578 5.34391 1.48012 0.434518 -1.41663
lowerback 4.92742 0.731757 -0.250283
upperback -1.22426 1.03568 1.91119
thorax -4.06883 0.545343 2.02829
lowerneck -14.4745 2.09411 0.676424
upperneck 16.1557 3.20523 -2.58479
head 7.40436 1.33361 -0.617405
rclavicle 7.85821e-015 -9.93923e-015
rhumerus -34.1099 -24.5335 -75.909
rradius 24.9044
rwrist 4.67399
rhand -7.57996 -35.8749
rfingers 7.12502
rthumb 18.313 -65.0329
lclavicle 7.85821e-015 -9.93923e-015
lhumerus -39.7282 19.9726 81.3938
lradius 36.336
lwrist -4.641
lhand -5.6611 -13.3863
lfingers 7.12502
lthumb 20.1581 15.5878
rfemur -1.3486 0.828814 21.3246
rtibia 17.1991
rfoot -15.3934 -11.9379
rtoes 19.8112
lfemur 1.67648 -0.58603 -18.281
ltibia 11.1219
lfoot -15.1504 2.14405
ltoes -28.3793
399
root 1.60778 17.858 5.34193 1.49664 0.497586 -1.44494
lowerback 4.95555 0.720866 -0.20417
upperback -1.21636 1.02412 1.90871
thorax -4.07519 0.538403 2.0005
lowerneck -14.4168 2.09878 0.810487
upperneck 16.1758 3.20654 -2.71313
head 7.40533 1.3308 -0.681648
rclavicle -5.2181e-015 2.50469e-014
rhumerus -34.2353 -24.5661 -75.8801
rradius 24.7342
rwrist 4.55449
rhand -8.13454 -35.5628
rfingers 7.12502
rthumb 17.7794 -64.77
lclavicle -5.2181e-015 2.50469e-014
lhumerus -39.7517 19.9517 81.4159
lradius 36.2789
lwrist -4.58125
lhand -5.62553 -13.3554
lfingers 7.12502
lthumb 20.1923 15.6151
rfemur -1.35804 0.837411 21.3608
rtibia 17.1775
rfoot -15.516 -11.9938
rtoes 20.4747
lfemur 1.62313 -0.589093 -18.2439
ltibia 11.1581
lfoot -15.1585 2.09299
ltoes -28.4449
